<svg xmlns="http://www.w3.org/2000/svg"  viewBox="0 0 48 48" width="144px" height="144px" baseProfile="basic"><rect width="34" height="24" x="7" y="18" fill="#d77757"/><rect width="3" height="9" x="10" y="39" fill="#d77757"/><rect width="3" height="9" x="16" y="39" fill="#d77757"/><rect width="3" height="9" x="29" y="39" fill="#d77757"/><rect width="3" height="9" x="35" y="39" fill="#d77757"/><rect width="7.5" height="6" x="1" y="33" fill="#d77757"/><rect width="7.5" height="6" x="39.5" y="33" fill="#d77757"/><rect width="3" height="6" x="13" y="21"/><rect width="3" height="6" x="32" y="21"/><rect width="3" height="3" x="45" y="3"/><rect width="3" height="3" x="42" y="6"/><rect width="3" height="3" x="42" y="12"/><rect width="3" height="3" x="33" y="12"/><rect width="3" height="3" x="27" y="12"/><rect width="3" height="3" x="21" y="12"/><rect width="3" height="9" x="42" y="-3" transform="rotate(90 43.5 1.5)"/></svg>