<svg xmlns="http://www.w3.org/2000/svg" width="32" height="32" viewBox="0 0 24 24"><!-- Icon from Freehand free icons by Streamline - https://creativecommons.org/licenses/by/4.0/ --><path fill="currentColor" d="M23.87 9.996a13.2 13.2 0 0 0-.69-2.998a9.9 9.9 0 0 0-3.376-4.496A10.63 10.63 0 0 0 14.638.434a.36.36 0 0 0-.39.3a.35.35 0 0 0 .3.38a10 10 0 0 1 4.796 2.047a9.17 9.17 0 0 1 2.998 4.177c.323.902.544 1.837.659 2.788c.085.954.085 1.913 0 2.867c-.093.94-.308 1.864-.64 2.748a12.8 12.8 0 0 1-1.299 2.528a9.63 9.63 0 0 1-4.506 3.497a12.56 12.56 0 0 1-5.735.85a12 12 0 0 1-3.157-.71a9.4 9.4 0 0 1-2.768-1.599a11.52 11.52 0 0 1-3.777-7.114A10.62 10.62 0 0 1 2.897 5.33a11.6 11.6 0 0 1 3.118-2.968a9.3 9.3 0 0 1 4.067-1.359C10.79.933 11.5.873 12.2.873q.703-.007 1.399.09a.3.3 0 1 0 .09-.59a11 11 0 0 0-1.48-.18a18 18 0 0 0-2.197.1c-1.55.133-3.048.622-4.377 1.43A12.6 12.6 0 0 0 2.218 4.82A11.48 11.48 0 0 0 .13 13.323a12.55 12.55 0 0 0 4.046 7.844a10.5 10.5 0 0 0 3.098 1.818a13.2 13.2 0 0 0 3.467.78c2.134.17 4.28-.158 6.265-.96a10.6 10.6 0 0 0 4.946-3.996a13.5 13.5 0 0 0 1.369-2.768c.348-.966.567-1.974.65-2.998a16.4 16.4 0 0 0-.1-3.047"/><path fill="currentColor" d="M20.273 9.996a.35.35 0 0 0 .29-.39a3.12 3.12 0 0 0-1.16-1.998a3.42 3.42 0 0 0-2.207-.71a3.8 3.8 0 0 0-2.139.85a4 4 0 0 0-1.189 1.888a.3.3 0 0 0 .18.39a.31.31 0 0 0 .39-.17c.263-.55.68-1.011 1.199-1.329q.292-.18.62-.28c.32-.119.657-.186.999-.2a2.48 2.48 0 0 1 1.588.35c.475.294.83.748 1 1.28a.35.35 0 0 0 .43.319M4.406 12.764a.31.31 0 0 0-.21.37a8.6 8.6 0 0 0 2.578 4.576a7.67 7.67 0 0 0 5.076 1.658a8 8 0 0 0 5.086-1.728a10.4 10.4 0 0 0 2.928-4.407a.341.341 0 0 0-.442-.453a.34.34 0 0 0-.188.183a9.8 9.8 0 0 1-2.898 3.917a7.12 7.12 0 0 1-4.496 1.34a6.8 6.8 0 0 1-4.456-1.23a7.87 7.87 0 0 1-2.608-3.997a.3.3 0 0 0-.37-.23m4.546-4.086a1.78 1.78 0 0 0-.739-2.298a1.74 1.74 0 0 0-1.659.13c-.999.6-1.608 2.188-.46 2.997a2.07 2.07 0 0 0 2.858-.83"/></svg>